<svg width="37.000000" height="30.000000" viewBox="0 0 37 30" fill="none" xmlns="http://www.w3.org/2000/svg" xmlns:xlink="http://www.w3.org/1999/xlink">
	<desc>
			Created with Pixso.
	</desc>
	<defs>
		<filter id="filter_5_220_dd" x="-0.375000" y="-0.001892" width="37.041748" height="29.166779" filterUnits="userSpaceOnUse" color-interpolation-filters="sRGB">
			<feFlood flood-opacity="0" result="BackgroundImageFix"/>
			<feColorMatrix in="SourceAlpha" type="matrix" values="0 0 0 0 0 0 0 0 0 0 0 0 0 0 0 0 0 0 127 0" result="hardAlpha"/>
			<feOffset dx="0" dy="4"/>
			<feGaussianBlur stdDeviation="1.33333"/>
			<feComposite in2="hardAlpha" operator="out" k2="-1" k3="1"/>
			<feColorMatrix type="matrix" values="0 0 0 0 0 0 0 0 0 0 0 0 0 0 0 0 0 0 0.25 0"/>
			<feBlend mode="normal" in2="BackgroundImageFix" result="effect_dropShadow_1"/>
			<feBlend mode="normal" in="SourceGraphic" in2="effect_dropShadow_1" result="shape"/>
		</filter>
	</defs>
	<g filter="url(#filter_5_220_dd)">
		<path id="Vector" d="M14.58 20.89L14.57 20.88L14.55 20.87C14.4 20.79 14.25 20.7 14.1 20.62C12.32 19.56 10.66 18.32 9.15 16.92C6.46 14.41 3.62 10.7 3.62 6.12C3.62 2.7 6.49 -0.01 9.96 -0.01C10.93 -0.01 11.88 0.2 12.75 0.62C13.62 1.03 14.39 1.64 15 2.39C15.6 1.64 16.37 1.03 17.24 0.62C18.11 0.2 19.06 -0.01 20.03 -0.01C23.5 -0.01 26.37 2.7 26.37 6.12C26.37 10.7 23.53 14.41 20.84 16.92C19.33 18.32 17.67 19.56 15.89 20.62C15.74 20.7 15.59 20.79 15.44 20.87L15.42 20.88L15.41 20.89L15.41 20.89C15.28 20.96 15.14 20.99 15 20.99C14.85 20.99 14.71 20.96 14.58 20.89L14.58 20.89Z" fill="#FFFFFF" fill-opacity="1.000000" fill-rule="nonzero"/>
		<path id="offline_bolt" d="M24.89 18.96L28.08 12.73L25.88 12.73L25.88 8.69L22.58 14.93L24.89 14.93L24.89 18.96ZM25.33 21.16C24.31 21.16 23.36 20.97 22.47 20.58C21.58 20.2 20.8 19.67 20.14 19.01C19.48 18.35 18.96 17.58 18.57 16.69C18.19 15.79 18 14.84 18 13.83C18 12.81 18.19 11.86 18.57 10.97C18.96 10.07 19.48 9.3 20.14 8.64C20.8 7.98 21.58 7.46 22.47 7.07C23.36 6.69 24.31 6.49 25.33 6.49C26.34 6.49 27.3 6.69 28.19 7.07C29.08 7.46 29.86 7.98 30.52 8.64C31.18 9.3 31.7 10.07 32.08 10.97C32.47 11.86 32.66 12.81 32.66 13.83C32.66 14.84 32.47 15.79 32.08 16.69C31.7 17.58 31.18 18.35 30.52 19.01C29.86 19.67 29.08 20.2 28.19 20.58C27.3 20.97 26.34 21.16 25.33 21.16Z" fill="#894189" fill-opacity="1.000000" fill-rule="nonzero"/>
		<path id="offline_bolt" d="M25.26 18.49L28.16 12.83L26.16 12.83L26.16 9.16L23.16 14.83L25.26 14.83L25.26 18.49ZM25.66 20.49C24.74 20.49 23.87 20.32 23.06 19.97C22.25 19.62 21.55 19.14 20.95 18.54C20.35 17.94 19.87 17.24 19.52 16.43C19.17 15.62 19 14.75 19 13.83C19 12.9 19.17 12.04 19.52 11.23C19.87 10.42 20.35 9.71 20.95 9.11C21.55 8.51 22.25 8.03 23.06 7.68C23.87 7.33 24.74 7.16 25.66 7.16C26.58 7.16 27.45 7.33 28.26 7.68C29.07 8.03 29.78 8.51 30.38 9.11C30.98 9.71 31.45 10.42 31.8 11.23C32.15 12.04 32.33 12.9 32.33 13.83C32.33 14.75 32.15 15.62 31.8 16.43C31.45 17.24 30.98 17.94 30.38 18.54C29.78 19.14 29.07 19.62 28.26 19.97C27.45 20.32 26.58 20.49 25.66 20.49Z" fill="#FFFFFF" fill-opacity="1.000000" fill-rule="nonzero"/>
	</g>
</svg>
